# xmcd
#
# Track frame offsets:
#	150
#	23585
#	29825
#	38755
#
# Disc length: 611 seconds
#
# Revision: 1
# Processed by: cddbd v1.4PL0 Copyright (c) Steve Scherf et al.
# Submitted via: EasyCDDAExtractor 5.0.7
#
DISCID=29026104
DTITLE=Annie Lennox - Bare Sampler
DYEAR=1900
DGENRE=
TTITLE0=Pavement Cracks(Bare US CD Sampler Version)
TTITLE1=A Thousand Beautiful Things(Sniplet)(Bare US CD Sampler Version)
TTITLE2=Wonderful(Sniplet)(Bare US CD Sampler Version)
TTITLE3=Bitter Pill(Sniplet)(Bare US CD Sampler Version)
EXTD=
EXTT0=
EXTT1=
EXTT2=
EXTT3=
PLAYORDER=
